# xmcd
#
# Track frame offsets: 
#        150
#        12367
#        20850
#        34358
#        50098
#        65424
#        75457
#        89418
#        109115
#        140099
#        162373
#        181557
#        193275
#        209714
#        226672
#        240854
#        257272
#        274283
#        293506
#        306419
#
# Disc length: 4270 seconds
#
# Revision: 0
# Processed by: cddbd v1.5.1PL2 Copyright (c) Steve Scherf et al.
# Submitted via: ExactAudioCopy v0.95b3
#
DISCID=1c10ac14
DTITLE=Dolly Parton - dad's dolly mix
DYEAR=2005
DGENRE=Country
TTITLE0=Jolene
TTITLE1=Touch Your Woman
TTITLE2=Here You Come Again
TTITLE3=It's All Wrong
TTITLE4=Tennessee Mountain Home
TTITLE5=Travelling Man
TTITLE6=Two Doors Down
TTITLE7=Coat of Many Colors
TTITLE8=Mountain Angel
TTITLE9=Silver Dagger
TTITLE10=Little Sparrow
TTITLE11=Beautiful Lie
TTITLE12=Bluer Pastures
TTITLE13=Tender Lie
TTITLE14=Steady as the Rain
TTITLE15=I Still Miss Someone
TTITLE16=Grass is Blue
TTITLE17=Travellin' Prayer
TTITLE18=Train, Train
TTITLE19=Sleep with One Eye Open
EXTD=
EXTT0=
EXTT1=
EXTT2=
EXTT3=
EXTT4=
EXTT5=
EXTT6=
EXTT7=
EXTT8=
EXTT9=
EXTT10=
EXTT11=
EXTT12=
EXTT13=
EXTT14=
EXTT15=
EXTT16=
EXTT17=
EXTT18=
EXTT19=
PLAYORDER=
